PathFileType	4	(X/Y/Z)	60_2_21_p1_0-217.trc
DataRate	CameraRate	NumFrames	NumMarkers	Units	OrigDataRate	OrigDataStartFrame	OrigNumFrames
59.0	59.0	6	27	m	59.0	54	218
Frame#	Time	RHip			RKnee			RAnkle			RBigToe			RSmallToe			RHeel			LHip			LKnee			LAnkle			LBigToe			LSmallToe			LHeel			Neck			Head			Nose			RShoulder			RElbow			RWrist			RThumb			RIndex			RPinky			LShoulder			LElbow			LWrist			LThumb			LIndex			LPinky			
		X1	Y1	Z1	X2	Y2	Z2	X3	Y3	Z3	X4	Y4	Z4	X5	Y5	Z5	X6	Y6	Z6	X7	Y7	Z7	X8	Y8	Z8	X9	Y9	Z9	X10	Y10	Z10	X11	Y11	Z11	X12	Y12	Z12	X13	Y13	Z13	X14	Y14	Z14	X15	Y15	Z15	X16	Y16	Z16	X17	Y17	Z17	X18	Y18	Z18	X19	Y19	Z19	X20	Y20	Z20	X21	Y21	Z21	X22	Y22	Z22	X23	Y23	Z23	X24	Y24	Z24	X25	Y25	Z25	X26	Y26	Z26	X27	Y27	Z27	
54	0.9152542372881356	0.348494781491422	0.4642580780127663	-0.19155951767060325	0.33490766083008033	0.6498682690905632	0.18776958345805628	0.2914522338006654	0.9032612116883176	0.5837898721872845	0.2840408949521938	0.6536955875281979	0.6892654270443972	0.3446292522661113	0.7247819895434202	0.6895902137544354	0.28397892972540417	0.9344746015855417	0.6169737795907768	0.14995121193068306	0.4708627745313386	-0.2025567343118935	0.1497354025797049	0.6649318190034383	0.18528096660524102	0.16224303804628773	0.8708516282230818	0.5703694256223684	0.14614346342218582	0.6553872768310068	0.6852214690335026	0.08456603875295186	0.696981509938027	0.6703726033177333	0.17015427403315828	0.9273263456902396	0.6188375175714924	0.2721834254999893	0.28980817020982375	-0.7678924803702583	0.29637622757718873	0.2364490836143027	-0.9943909320396377	0.27583194004169564	0.17830058060489423	-0.863365700198522	0.42673781859542853	0.34472681891601387	-0.6819506160351179	0.5341233932305971	0.38228299198355536	-0.4504966648428071	0.40228307320837114	0.15058157815008702	-0.34098577007090064	0.2999726115664252	0.06478300625024559	-0.32995691082636885	0.2975767937392224	0.05269163660626893	-0.29007940475254446	0.3185439255895227	0.07986818325226594	-0.242223802384356	0.10331968814500635	0.3579592354865203	-0.6917666649718447	0.002752882916968138	0.4288160511082003	-0.478028913676839	-0.0225701992878861	0.23421296756860396	-0.3565785875800411	0.028602734600334676	0.1602466263707607	-0.2960042085735215	0.016154725038184457	0.09047361189111564	-0.2715054190747889	-0.012258378878957758	0.2013843889191713	-0.2398297962113099
55	0.9322033898305084	0.35274796928842667	0.4926836955598674	-0.19628504571906788	0.3347289506161468	0.6503120111222287	0.18849376932615186	0.292454781313264	0.9069379860072303	0.5887651021930004	0.28010802204354507	0.6423395290278754	0.6954288044480628	0.3401692140563822	0.7084577062042126	0.6868609285353466	0.2840106942192188	0.934426368518073	0.617679814395174	0.14990088330140633	0.4674568760513406	-0.20968124428207444	0.15283736043122256	0.6797290337001247	0.18636056413475208	0.16318889866031425	0.8738529949625361	0.5754411122316323	0.14611419220116367	0.6553258719531596	0.685216199985088	0.08450683553845632	0.6971675201375456	0.6706177512088058	0.17024049980107467	0.9278358794172575	0.6195734658161985	0.27212800897414324	0.28979598948602514	-0.7680676300734677	0.29305095875104853	0.22592682126225455	-0.9908790954517613	0.2758949575231943	0.17796516884479435	-0.8663734094692553	0.4266439481845021	0.34474602422046086	-0.681980902309497	0.5312100757672877	0.3967340761181471	-0.45258662295984997	0.4206669534880173	0.1186096076519048	-0.3529426747308979	0.32221445860952436	0.030759894114973627	-0.3336610383658087	0.3133331285566756	0.038814504612445865	-0.29933962370778555	0.3311908296490257	0.07163459067239346	-0.2706520415202198	0.10321679213510809	0.3580638546682365	-0.6919524862654751	0.007177456594094387	0.42558699957685336	-0.48929670221688426	-0.04581678761159776	0.26298023233348794	-0.37711369178430065	-0.021439682376716493	0.11736774891203892	-0.3253393757685899	-0.029745737076233437	0.11292117166730985	-0.28778204226918336	-0.032261172799216836	0.16585615048422855	-0.2753132920402613
56	0.9491525423728814	0.3533555676835881	0.49245797790130025	-0.1974869749380973	0.33486003140104725	0.6503540436075671	0.18829307996907999	0.2924390699468748	0.9069251502529698	0.5888275655810853	0.2810326392118715	0.6410241563494093	0.6917217977378505	0.3400328212881147	0.7403273249767138	0.694144133501058	0.2839845783207527	0.9343328405809895	0.6181119694431755	0.1498254116121557	0.4684565297442578	-0.20968587062464447	0.1531126339775901	0.6797401756702319	0.19085119530750244	0.16314586204567957	0.8741846365749971	0.5756351257677425	0.1423935679646363	0.6538140437433019	0.6851713556086023	0.08042748316391647	0.7115833057984406	0.6701536163622481	0.17026699855654712	0.9282627007332609	0.6201059978520137	0.2720957906659111	0.2899363609923839	-0.7681366290596228	0.2964117264449585	0.23661086863403985	-0.9944397749437583	0.27591657479009285	0.1778798550162448	-0.8662816697136406	0.42667463779538345	0.34513839658003054	-0.6819766484601356	0.5317677446668554	0.39708785424937987	-0.45633308953379514	0.4342896522677165	0.11044344437859466	-0.36997080545077216	0.3455416897826577	0.0147151025589742	-0.3530631603641471	0.34611650703473706	-0.008509922554086002	-0.3226677551177588	0.36534676351624906	0.020672773172335446	-0.2856306037173484	0.10325220302500766	0.3591543762791722	-0.6886045809446772	0.004517677967128871	0.4121501814224412	-0.49024441983640477	-0.05476046827585045	0.24665616277431446	-0.38275731866329604	-0.031091687582022826	0.10542926223257894	-0.35844220227232126	-0.05291086020465516	0.08156174809555351	-0.32926675419170737	-0.045957001803228786	0.1278916397450968	-0.27988263653429213
57	0.9661016949152542	0.3535194800370786	0.49221668300136234	-0.19766066441739433	0.3350090828538423	0.6507108906236126	0.19209376579109635	0.2924550674760922	0.9068834234908486	0.588744028744282	0.2840718843851756	0.657649133817629	0.702717457642485	0.3440171086058971	0.7243398215023198	0.6944619290995445	0.2839661213108486	0.934305423875302	0.6177354703789139	0.14962494147152042	0.4703394195581718	-0.20122190866821682	0.153109761215108	0.679408366451769	0.1909376063469535	0.1630998320898449	0.8740322166579191	0.5756378027114165	0.1460464943575265	0.6554750924259234	0.6854816532118305	0.08038439215337151	0.7114927515440271	0.6702442056076561	0.17002430121953124	0.9277924175932284	0.6201037654677598	0.27210628141495863	0.2898278348159626	-0.7681318958017985	0.2963070711843139	0.23650391076091148	-0.9943166340505599	0.27590729746458686	0.17755208469731212	-0.8661149439870046	0.4266488595970842	0.3449229547717907	-0.6820185729687855	0.5294490146323977	0.41017575705018544	-0.4658186005936342	0.44659613466716586	0.12948964639371596	-0.38575470016505675	0.3688543939802707	-0.012484187516287274	-0.3572969610952947	0.36355938954748995	-0.027016931385771176	-0.345500460398991	0.388660943857819	0.03622738855347247	-0.30498162675768964	0.10037154574234018	0.34643632004920794	-0.6859524549620949	0.0009714842062175958	0.41307673404586187	-0.4828778405293133	-0.07024977272272438	0.2171126914163754	-0.39074025407929813	-0.06415110128067877	0.09312724553360179	-0.374736770032086	-0.0986473693105796	0.04559239829846795	-0.3520761884676633	-0.10404120823430492	0.1581671613124082	-0.3169957046605706
58	0.9830508474576272	0.35719958699848947	0.47683078328239353	-0.19666584665326037	0.3346774398062683	0.6505988381573731	0.188834401930364	0.29247308231854374	0.9068776236024436	0.5887588386650651	0.2841292784958493	0.6575343414014168	0.7026519055302081	0.34400366886680644	0.7239909455117336	0.6944810442107733	0.28398798497594	0.9343359342077303	0.6176854183325688	0.1496753177511176	0.47060058189082493	-0.2010834871592427	0.15312929921157048	0.6796310711785237	0.19091302863563855	0.1623075682602904	0.8710336587146453	0.5704889750743798	0.14241939408023244	0.6538001419292065	0.6850530373069473	0.08443794667232458	0.697466687304354	0.6710107675942985	0.16998005787295947	0.927692680731646	0.6200520477434744	0.27198115258645406	0.28818764633601546	-0.7713704038207794	0.29286513968681516	0.22583320555070588	-0.9907524219171995	0.2795282042797934	0.16608882244774953	-0.8626825440578733	0.42703807981065756	0.3464486693261234	-0.6783240690260064	0.5269922564118075	0.3969880803351077	-0.45287299101929723	0.45724221103301876	0.12519320035593903	-0.3926699037792464	0.38395596425589457	-0.027290656401516466	-0.37547296389753554	0.3873589865550327	-0.06495248050101217	-0.3549845001176841	0.4166613399692394	0.030431325696723386	-0.32718780206530174	0.09657184375992177	0.34525332257742025	-0.6856812704514398	0.01193554968150742	0.385463285655379	-0.4818057129306397	-0.07696869665195674	0.1930079338569309	-0.41668254417410133	-0.11336426933568301	0.12450601057393554	-0.42260695295111483	-0.13584502786433778	0.0780426814842486	-0.39944467796974	-0.12306318163629695	0.08903910533363091	-0.3473323520206893
59	1.0	0.35268256709670565	0.49005811351110395	-0.20111071848221915	0.3349137028067227	0.650818006926052	0.19226792719995692	0.29169773957929135	0.9032630875038099	0.5882159270602988	0.2851928881747135	0.6564249124415892	0.6985730759875832	0.34390983199742603	0.7242101769901271	0.6945813157445945	0.28398310771005186	0.9343145769104089	0.6176968341691893	0.14504027372333855	0.48563429264567454	-0.20192211467349658	0.15316020789856677	0.6796404807795975	0.19094126492478794	0.16233308082219866	0.8708668728006587	0.5703755127908815	0.14242321218660908	0.6538903924592797	0.6850230703046608	0.08444774212228906	0.6973590833629443	0.6708733671671803	0.16999247220417615	0.9274275356866717	0.6197359064902945	0.2719499083120008	0.2882270694868099	-0.7714805620216588	0.2928312413459846	0.22572133011761336	-0.9907830406024448	0.28375080854221435	0.16618532869399816	-0.8627897791797439	0.4272175931754347	0.3461425976242446	-0.67822774957102	0.5123082286193059	0.3604453603036407	-0.4428111928292887	0.4720125967081061	0.11445038690986332	-0.3920683529866211	0.4181054233840746	-0.010472388807744027	-0.39581631756550306	0.42883066481491555	-0.03131149715750486	-0.3856371964689226	0.4401187122558456	-0.023754574893226355	-0.3510995679575826	0.09640153258759046	0.3452801245362102	-0.6856763987695191	0.017234520385253423	0.3733569657697449	-0.4781112798202538	-0.09578935369516285	0.1812374476283224	-0.4328963604760829	-0.12306797129538749	0.10828752209863607	-0.431355155481299	-0.1625031473781897	0.07122795967355526	-0.4153684366375044	-0.15803812438300385	0.07352848191701444	-0.35687749890906484
